{
    "asset" : {
        "generator" : "Khronos glTF Blender I/O v1.7.33",
        "version" : "2.0"
    },
    "scene" : 0,
    "scenes" : [
        {
            "name" : "Scene",
            "nodes" : [
                4
            ]
        }
    ],
    "nodes" : [
        {
            "mesh" : 0,
            "name" : "Face",
            "rotation" : [
                0.7009093165397644,
                0,
                0,
                0.713250458240509
            ],
            "scale" : [
                1.0850756168365479,
                2.170151472091675,
                1.0850757360458374
            ],
            "translation" : [
                -0.004891314543783665,
                0.2182939052581787,
                0.9051331877708435
            ]
        },
        {
            "mesh" : 1,
            "name" : "Leaf",
            "rotation" : [
                0.5199222564697266,
                -0.009867873974144459,
                -0.005650418344885111,
                0.8541378974914551
            ],
            "translation" : [
                -0.00023512961342930794,
                -0.7743980884552002,
                0.4735845923423767
            ]
        },
        {
            "mesh" : 2,
            "name" : "Tail",
            "rotation" : [
                -0.7952011227607727,
                0.016726449131965637,
                -0.07236925512552261,
                0.6017792820930481
            ],
            "scale" : [
                0.20999446511268616,
                0.16500799357891083,
                0.20727410912513733
            ],
            "translation" : [
                0,
                -0.36890313029289246,
                -0.8336656093597412
            ]
        },
        {
            "mesh" : 3,
            "name" : "Teeth",
            "rotation" : [
                -0.10029977560043335,
                -0.014107760973274708,
                0.01153771486133337,
                0.9947904348373413
            ],
            "scale" : [
                0.19820350408554077,
                0.19820350408554077,
                0.19820350408554077
            ],
            "translation" : [
                -0.07498175650835037,
                0.18849332630634308,
                0.8089402318000793
            ]
        },
        {
            "children" : [
                0,
                1,
                2,
                3
            ],
            "mesh" : 4,
            "name" : "Rabbit",
            "translation" : [
                0,
                1.0242420434951782,
                0
            ]
        }
    ],
    "materials" : [
        {
            "doubleSided" : true,
            "name" : "Material.002",
            "pbrMetallicRoughness" : {
                "baseColorTexture" : {
                    "index" : 0
                },
                "metallicFactor" : 0,
                "roughnessFactor" : 0.5
            }
        },
        {
            "doubleSided" : true,
            "name" : "Leaf",
            "pbrMetallicRoughness" : {
                "baseColorFactor" : [
                    0.25015830993652344,
                    0.40724021196365356,
                    0,
                    1
                ],
                "metallicFactor" : 0,
                "roughnessFactor" : 0.5
            }
        },
        {
            "doubleSided" : true,
            "name" : "White",
            "pbrMetallicRoughness" : {
                "baseColorFactor" : [
                    0.800000011920929,
                    0.800000011920929,
                    0.800000011920929,
                    1
                ],
                "metallicFactor" : 0
            }
        },
        {
            "doubleSided" : true,
            "name" : "Black",
            "pbrMetallicRoughness" : {
                "baseColorFactor" : [
                    0.010960093699395657,
                    0.010960093699395657,
                    0.015208514407277107,
                    1
                ],
                "metallicFactor" : 0,
                "roughnessFactor" : 0.5
            }
        }
    ],
    "meshes" : [
        {
            "name" : "Plane.002",
            "primitives" : [
                {
                    "attributes" : {
                        "POSITION" : 0,
                        "NORMAL" : 1,
                        "TEXCOORD_0" : 2
                    },
                    "indices" : 3,
                    "material" : 0
                }
            ]
        },
        {
            "name" : "Vert",
            "primitives" : [
                {
                    "attributes" : {
                        "POSITION" : 4,
                        "NORMAL" : 5
                    },
                    "indices" : 6,
                    "material" : 1
                }
            ]
        },
        {
            "name" : "Sphere",
            "primitives" : [
                {
                    "attributes" : {
                        "POSITION" : 7,
                        "NORMAL" : 8,
                        "TEXCOORD_0" : 9
                    },
                    "indices" : 10,
                    "material" : 2
                }
            ]
        },
        {
            "name" : "Cube.010",
            "primitives" : [
                {
                    "attributes" : {
                        "POSITION" : 11,
                        "NORMAL" : 12,
                        "TEXCOORD_0" : 13
                    },
                    "indices" : 14,
                    "material" : 2
                }
            ]
        },
        {
            "name" : "Body.001",
            "primitives" : [
                {
                    "attributes" : {
                        "POSITION" : 15,
                        "NORMAL" : 16,
                        "TEXCOORD_0" : 17
                    },
                    "indices" : 18,
                    "material" : 2
                },
                {
                    "attributes" : {
                        "POSITION" : 19,
                        "NORMAL" : 20,
                        "TEXCOORD_0" : 21
                    },
                    "indices" : 22,
                    "material" : 3
                }
            ]
        }
    ],
    "textures" : [
        {
            "sampler" : 0,
            "source" : 0
        }
    ],
    "images" : [
        {
            "bufferView" : 4,
            "mimeType" : "image/png",
            "name" : "Face_29"
        }
    ],
    "accessors" : [
        {
            "bufferView" : 0,
            "componentType" : 5126,
            "count" : 256,
            "max" : [
                0.6664583683013916,
                -0.0010353028774261475,
                0.7920323610305786
            ],
            "min" : [
                -0.6582614183425903,
                -0.31048280000686646,
                -1.1130660772323608
            ],
            "type" : "VEC3"
        },
        {
            "bufferView" : 1,
            "componentType" : 5126,
            "count" : 256,
            "type" : "VEC3"
        },
        {
            "bufferView" : 2,
            "componentType" : 5126,
            "count" : 256,
            "type" : "VEC2"
        },
        {
            "bufferView" : 3,
            "componentType" : 5123,
            "count" : 384,
            "type" : "SCALAR"
        },
        {
            "bufferView" : 5,
            "componentType" : 5126,
            "count" : 568,
            "max" : [
                0.27925556898117065,
                0.18548691272735596,
                0.02912530116736889
            ],
            "min" : [
                -0.2799393832683563,
                -0.2508357763290405,
                -0.019945986568927765
            ],
            "type" : "VEC3"
        },
        {
            "bufferView" : 6,
            "componentType" : 5126,
            "count" : 568,
            "type" : "VEC3"
        },
        {
            "bufferView" : 7,
            "componentType" : 5123,
            "count" : 3204,
            "type" : "SCALAR"
        },
        {
            "bufferView" : 8,
            "componentType" : 5126,
            "count" : 287,
            "max" : [
                1,
                1,
                1.0000001192092896
            ],
            "min" : [
                -0.9999999403953552,
                -1,
                -1
            ],
            "type" : "VEC3"
        },
        {
            "bufferView" : 9,
            "componentType" : 5126,
            "count" : 287,
            "type" : "VEC3"
        },
        {
            "bufferView" : 10,
            "componentType" : 5126,
            "count" : 287,
            "type" : "VEC2"
        },
        {
            "bufferView" : 11,
            "componentType" : 5123,
            "count" : 1440,
            "type" : "SCALAR"
        },
        {
            "bufferView" : 12,
            "componentType" : 5126,
            "count" : 288,
            "max" : [
                0.5047323703765869,
                0.5127743482589722,
                0.0639885738492012
            ],
            "min" : [
                -0.5502617955207825,
                -0.5040183067321777,
                -0.06398767232894897
            ],
            "type" : "VEC3"
        },
        {
            "bufferView" : 13,
            "componentType" : 5126,
            "count" : 288,
            "type" : "VEC3"
        },
        {
            "bufferView" : 14,
            "componentType" : 5126,
            "count" : 288,
            "type" : "VEC2"
        },
        {
            "bufferView" : 15,
            "componentType" : 5123,
            "count" : 432,
            "type" : "SCALAR"
        },
        {
            "bufferView" : 16,
            "componentType" : 5126,
            "count" : 5783,
            "max" : [
                1.1674737930297852,
                1.9591972827911377,
                0.8678486347198486
            ],
            "min" : [
                -1.1674737930297852,
                -1.0182141065597534,
                -0.8668200373649597
            ],
            "type" : "VEC3"
        },
        {
            "bufferView" : 17,
            "componentType" : 5126,
            "count" : 5783,
            "type" : "VEC3"
        },
        {
            "bufferView" : 18,
            "componentType" : 5126,
            "count" : 5783,
            "type" : "VEC2"
        },
        {
            "bufferView" : 19,
            "componentType" : 5123,
            "count" : 30717,
            "type" : "SCALAR"
        },
        {
            "bufferView" : 20,
            "componentType" : 5126,
            "count" : 39,
            "max" : [
                0.2843039631843567,
                0.28664714097976685,
                0.8344581127166748
            ],
            "min" : [
                -0.28664708137512207,
                -0.03787199407815933,
                0.7908408641815186
            ],
            "type" : "VEC3"
        },
        {
            "bufferView" : 21,
            "componentType" : 5126,
            "count" : 39,
            "type" : "VEC3"
        },
        {
            "bufferView" : 22,
            "componentType" : 5126,
            "count" : 39,
            "type" : "VEC2"
        },
        {
            "bufferView" : 23,
            "componentType" : 5123,
            "count" : 111,
            "type" : "SCALAR"
        }
    ],
    "bufferViews" : [
        {
            "buffer" : 0,
            "byteLength" : 3072,
            "byteOffset" : 0
        },
        {
            "buffer" : 0,
            "byteLength" : 3072,
            "byteOffset" : 3072
        },
        {
            "buffer" : 0,
            "byteLength" : 2048,
            "byteOffset" : 6144
        },
        {
            "buffer" : 0,
            "byteLength" : 768,
            "byteOffset" : 8192
        },
        {
            "buffer" : 0,
            "byteLength" : 17861,
            "byteOffset" : 8960
        },
        {
            "buffer" : 0,
            "byteLength" : 6816,
            "byteOffset" : 26824
        },
        {
            "buffer" : 0,
            "byteLength" : 6816,
            "byteOffset" : 33640
        },
        {
            "buffer" : 0,
            "byteLength" : 6408,
            "byteOffset" : 40456
        },
        {
            "buffer" : 0,
            "byteLength" : 3444,
            "byteOffset" : 46864
        },
        {
            "buffer" : 0,
            "byteLength" : 3444,
            "byteOffset" : 50308
        },
        {
            "buffer" : 0,
            "byteLength" : 2296,
            "byteOffset" : 53752
        },
        {
            "buffer" : 0,
            "byteLength" : 2880,
            "byteOffset" : 56048
        },
        {
            "buffer" : 0,
            "byteLength" : 3456,
            "byteOffset" : 58928
        },
        {
            "buffer" : 0,
            "byteLength" : 3456,
            "byteOffset" : 62384
        },
        {
            "buffer" : 0,
            "byteLength" : 2304,
            "byteOffset" : 65840
        },
        {
            "buffer" : 0,
            "byteLength" : 864,
            "byteOffset" : 68144
        },
        {
            "buffer" : 0,
            "byteLength" : 69396,
            "byteOffset" : 69008
        },
        {
            "buffer" : 0,
            "byteLength" : 69396,
            "byteOffset" : 138404
        },
        {
            "buffer" : 0,
            "byteLength" : 46264,
            "byteOffset" : 207800
        },
        {
            "buffer" : 0,
            "byteLength" : 61434,
            "byteOffset" : 254064
        },
        {
            "buffer" : 0,
            "byteLength" : 468,
            "byteOffset" : 315500
        },
        {
            "buffer" : 0,
            "byteLength" : 468,
            "byteOffset" : 315968
        },
        {
            "buffer" : 0,
            "byteLength" : 312,
            "byteOffset" : 316436
        },
        {
            "buffer" : 0,
            "byteLength" : 222,
            "byteOffset" : 316748
        }
    ],
    "samplers" : [
        {
            "magFilter" : 9729,
            "minFilter" : 9987,
            "wrapS" : 33071,
            "wrapT" : 33071
        }
    ],
    "buffers" : [
        {
            "byteLength" : 316972,
            "uri" : "data:application/octet-stream;base64,"
        }
    ]
}
